<svg xmlns="http://www.w3.org/2000/svg" enable-background="new 0 0 32 32" viewBox="0 0 32 32" id="coffee"><rect width="2" height="3.857" x="12.23" y="4.044" fill="#4d8b55" class="color000000 svgShape"></rect><rect width="2" height="3.857" x="7.23" y="4.044" fill="#4d8b55" class="color000000 svgShape"></rect><rect width="2" height="3.857" x="17.23" y="4.044" fill="#4d8b55" class="color000000 svgShape"></rect><path d="M13.2304688,27.9560547c4.0736084,0,7.6368408-2.1875,9.6057129-5.4423828h0.901123
	C27.1904297,22.5136719,30,19.7041016,30,16.2509766s-2.8095703-6.2617188-6.2626953-6.2617188L2,9.984375v6.7412109
	C2,22.9179688,7.0380859,27.9560547,13.2304688,27.9560547z M4,11.9824219l18.4609375-0.0351562v4.7783203
	c0,5.0898438-4.140625,9.2304688-9.2304688,9.2304688S4,21.8154297,4,16.7255859V11.9824219z M28,16.2509766
	c0,2.3320923-1.8834229,4.227417-4.2086182,4.2572021c0.4255371-1.184082,0.6695557-2.4538574,0.6695557-3.7825928v-4.663208
	C26.4663696,12.4083862,28,14.1490479,28,16.2509766z" fill="#4d8b55" class="color000000 svgShape"></path></svg>