<svg xmlns="http://www.w3.org/2000/svg" viewBox="0 0 100 100" id="Excellence"><g fill="#4d8b55" class="color000000 svgShape"><path d="M19.57 40.94a1.87 1.87 0 00-.22.39s0 .05 0 .08a1.55 1.55 0 00-.07.43h0a1.62 1.62 0 00.07.44s0 .05 0 .07a1.64 1.64 0 00.22.39v0l29.25 36.7a1 1 0 00.26.25l.06 0a1.34 1.34 0 00.31.17l.11 0a1.36 1.36 0 00.86 0l.11 0a1.34 1.34 0 00.31-.17l.06 0a1 1 0 00.26-.25l29.25-36.7a1.52 1.52 0 000-1.87l-11.17-14a1.53 1.53 0 00-1.18-.56H31.93a1.53 1.53 0 00-1.18.56l-11.17 14S19.57 40.93 19.57 40.94zm18.67 2.41l8.21 28.33L23.87 43.35zm37.89 0L53.55 71.68l8.21-28.33zM50 73.16L41.36 43.35H58.64zM76.13 40.35H61.76l-3.19-11h8.78zm-20.68-11l3.19 11H41.36l3.19-11zm-22.8 0h8.78l-3.19 11H23.87zM22.51 24.63a1.49 1.49 0 001.06.44 1.53 1.53 0 001.06-.44 1.51 1.51 0 000-2.12l-5.39-5.39a1.5 1.5 0 00-2.12 2.12zM12.62 48.5H5a1.5 1.5 0 000 3h7.62a1.5 1.5 0 000-3zM22.51 75.37l-5.39 5.39a1.49 1.49 0 000 2.12 1.5 1.5 0 002.12 0l5.39-5.39a1.5 1.5 0 00-2.12-2.12zM50 85.88a1.5 1.5 0 00-1.5 1.5V95a1.5 1.5 0 003 0V87.38A1.5 1.5 0 0050 85.88zM77.49 75.37a1.5 1.5 0 00-2.12 2.12l5.39 5.39a1.5 1.5 0 002.12 0 1.49 1.49 0 000-2.12zM95 48.5H87.38a1.5 1.5 0 000 3H95a1.5 1.5 0 000-3zM80.76 17.12l-5.39 5.39a1.51 1.51 0 000 2.12 1.53 1.53 0 001.06.44 1.49 1.49 0 001.06-.44l5.39-5.39a1.5 1.5 0 00-2.12-2.12zM50 14.12a1.5 1.5 0 001.5-1.5V5a1.5 1.5 0 00-3 0v7.62A1.5 1.5 0 0050 14.12z" fill="#4d8b55" class="color000000 svgShape"></path></g></svg>